# xmcd
#
# Track frame offsets:
#	150
#	12549
#	24116
#	36753
#	47372
#	59250
#	72296
#	81795
#	94984
#	110216
#	121088
#	133759
#	145522
#	157622
#	170471
#	183484
#
# Disc length: 2645
#
# Revision: 1
# Processed by: cddbd v1.5.1PL0 Copyright (c) Steve Scherf et al.
# Submitted via: audiograbber 1.83.01
# Normalized: r0:DSETVAR1
#
DISCID=ca0a5310
DTITLE=Various Artist - Country Superstars Vol 3 CD 2
DYEAR=1900
DGENRE=Country
TTITLE0=Freddy Fender - Wasted Days N Wasted Nights
TTITLE1=Freddy Fender - Before The Next Teardrops Fall
TTITLE2=Freddy Fender - Almost Persuaded
TTITLE3=Freddy Fender - A Man Can Cry
TTITLE4=Freddy Fender - Lovin' Cajun Style
TTITLE5=Freddy Fender - Silver Wings
TTITLE6=Freddy Fender - Running Back
TTITLE7=Freddy Fender - The Girl Who Waits on Tables
TTITLE8=Billy Jo Spears - Blanket On the Ground
TTITLE9=Billy Jo Spears - Misty Blue
TTITLE10=Billy Jo Spears - '57 Chevrolet
TTITLE11=Billy Jo Spears - I'm Not Easy
TTITLE12=Billy Jo Spears - I'm Gonna Love Lovin You
TTITLE13=Billy Jo Spears - What I've Got in Mind
TTITLE14=Billy Jo Spears - Blue Orleans
TTITLE15=Billy Jo Spears - Crystal Chandeliers
EXTD=
EXTT0=
EXTT1=
EXTT2=
EXTT3=
EXTT4=
EXTT5=
EXTT6=
EXTT7=
EXTT8=
EXTT9=
EXTT10=
EXTT11=
EXTT12=
EXTT13=
EXTT14=
EXTT15=
PLAYORDER=
